<svg version="1" xmlns="http://www.w3.org/2000/svg" width="800" height="800" viewBox="0 0 600.000000 600.000000"><path d="M0 300v300h600V0H0v300zm479.9-109.3c5.2.8 12.4 2.5 16 3.7l6.6 2.2.3 21.4c.1 11.7-.1 21.7-.6 22.2-.4.4-3.7-.7-7.2-2.6-6.5-3.4-13.9-6.1-23.5-8.7-3.2-.9-10.2-1.4-19-1.3-12.1 0-14.8.3-19.8 2.3-10 3.9-14.7 9.4-14.7 17.1 0 7.9 3.8 13.2 13.9 19.7 5.5 3.6 8.5 5 25.6 12.4 19.4 8.4 29.2 14.5 38.7 24C508 315 512.9 329 511.7 348c-1.1 16.7-4.8 25.2-16.1 36.6-6.3 6.2-9.9 8.9-15.9 11.7-14.8 7.1-28.9 9.7-52.7 9.7-22.5 0-37.9-2.6-52.8-8.8l-6.7-2.8-.3-23.7c-.3-26.7-.5-26.1 7-20.4 5.7 4.4 14 9 20.8 11.7 7.2 2.8 23.5 6 31 6 6.6 0 17.7-2.1 23-4.4 9.7-4.1 14.3-13.9 10.6-22.7-4.1-9.9-10.4-13.9-46.7-29.8-22.9-10.1-38.4-24.3-43.1-39.5-2-6.5-3.8-16.3-3.8-20.6 0-5.9 2.6-18.4 5-23.7 7.8-17.8 25.7-30.8 49.4-35.9 16.1-3.6 40.5-3.9 59.5-.7zM185.6 193c22.3 3.9 32.2 8.1 41.9 17.8 18 18 17.3 45.3-1.5 64.1-6.4 6.4-18.7 14.1-22.6 14.1-.8 0-1.4.3-1.4.8 0 .4 2.6 1.2 5.8 1.8 9.1 1.8 18.8 7.1 26.3 14.4 10.9 10.7 14.3 19.2 14.2 35.6-.1 8.8-.5 12.5-2.3 17.5-3.3 9.5-7.2 15.8-13.7 22.1-10 9.9-19.8 15.1-35.8 19.1-7.2 1.8-12.4 2-54.8 2.4-25.8.3-47.9.2-49.3-.1L90 402V297.6c0-57.3.3-104.6.7-104.9 1.1-1.1 88.4-.8 94.9.3zm143.8-.4c1.4.6 1.6 10.7 1.6 104.5 0 101.6 0 103.9-1.9 104.9-2.1 1.1-42.8 1.5-45.5.4-1.4-.6-1.6-10.7-1.6-104.8 0-57.4.3-104.6.7-104.9.8-.9 44.6-.9 46.7-.1z"/><path d="M139 228.5c0 .3 0 11.3-.1 24.6v24.1l13.3-.1c17.2-.2 22.5-1.4 28.6-6.5 5.1-4.3 7.1-8.6 7.8-16.4 1.8-18.6-9.3-26.2-38.3-26.2-6.2 0-11.3.2-11.3.5zM138.7 340l.2 26.2 16.3-.1c18.8-.2 21.7-.5 27.8-3.7 10-5.1 13.9-11.6 14-23.2 0-8.7-2.1-13.5-7.7-18-7.6-5.9-10-6.5-31.3-7l-19.5-.4.2 26.2z"/></svg>